<?xml version="1.0"?>
<svg width="400" height="400" xmlns="http://www.w3.org/2000/svg" xmlns:svg="http://www.w3.org/2000/svg">
 <!-- Created with SVG-edit - https://github.com/SVG-Edit/svgedit-->
 <g class="layer">
  <title>Layer 1</title>
  <rect fill="#000000" height="400" id="svg_1" stroke="#000000" width="40" x="0" y="0"/>
  <rect fill="#000000" height="400" id="svg_2" stroke="#000000" width="40" x="360" y="0"/>
  <rect fill="#000000" height="40" id="svg_4" stroke="#000000" width="40" x="40" y="0"/>
  <rect fill="#000000" height="40" id="svg_5" stroke="#000000" transform="matrix(1 0 0 1 0 0)" width="40" x="320" y="0"/>
  <rect fill="#000000" height="40" id="svg_6" stroke="#000000" transform="matrix(1 0 0 1 0 0)" width="40" x="40" y="360"/>
  <rect fill="#000000" height="40" id="svg_7" stroke="#000000" width="40" x="320" y="360"/>
  <rect fill="#000000" height="40" id="svg_8" stroke="#000000" width="40" x="80" y="80"/>
  <rect fill="#000000" height="40" id="svg_9" stroke="#000000" transform="matrix(1 0 0 1 0 0)" width="40" x="180" y="80"/>
  <rect fill="#000000" height="40" id="svg_10" stroke="#000000" transform="matrix(1 0 0 1 0 0)" width="40" x="280" y="80"/>
  <rect fill="#000000" height="40" id="svg_11" stroke="#000000" width="40" x="80" y="180"/>
  <rect fill="#000000" height="40" id="svg_12" stroke="#000000" transform="matrix(1 0 0 1 0 0)" width="40" x="180" y="180"/>
  <rect fill="#000000" height="40" id="svg_13" stroke="#000000" transform="matrix(1 0 0 1 0 0)" width="40" x="280" y="180"/>
  <rect fill="#000000" height="40" id="svg_14" stroke="#000000" width="40" x="80" y="280"/>
  <rect fill="#000000" height="40" id="svg_15" stroke="#000000" transform="matrix(1 0 0 1 0 0)" width="40" x="180" y="280"/>
  <rect fill="#000000" height="40" id="svg_16" stroke="#000000" transform="matrix(1 0 0 1 0 0)" width="40" x="280" y="280"/>
 </g>
</svg>