<svg width="800" height="800" xmlns="http://www.w3.org/2000/svg" xmlns:svg="http://www.w3.org/2000/svg">
 <!-- Created with SVG-edit - https://github.com/SVG-Edit/svgedit-->

 <g class="layer">
  <title>Layer 1</title>
  <line fill="none" id="svg_6" stroke="#2b2b2b" stroke-width="8" x1="50" x2="750" y1="100" y2="100"/>
  <line fill="none" id="svg_8" stroke="#2b2b2b" stroke-width="8" x1="257" x2="257" y1="50" y2="750"/>
  <line fill="none" id="svg_9" stroke="#2b2b2b" stroke-width="8" x1="540" x2="540" y1="50" y2="750"/>
  <g id="svg_10" transform="matrix(1 0 0 1 0 0)">
   <line fill="none" id="svg_2" stroke="#000000" stroke-width="30" x1="50" x2="236" y1="65" y2="65"/>
   <line fill="none" id="svg_4" stroke="#000000" stroke-width="30" x1="276.99999" x2="520.00003" y1="65" y2="65"/>
   <line fill="none" id="svg_5" stroke="#000000" stroke-width="30" x1="558" x2="751.00001" y1="65" y2="65"/>
  </g>
  <line fill="none" id="svg_12" stroke="#595959" stroke-width="30" transform="matrix(1 0 0 1 0 0)" x1="50" x2="236" y1="135" y2="135"/>
  <line fill="none" id="svg_13" stroke="#595959" stroke-width="30" transform="matrix(1 0 0 1 0 0)" x1="276.99999" x2="484.00003" y1="135" y2="135"/>
  <line fill="none" id="svg_14" stroke="#595959" stroke-width="30" transform="matrix(1 0 0 1 0 0)" x1="558" x2="671" y1="135" y2="135"/>
  <line fill="none" id="svg_16" stroke="#595959" stroke-width="30" x1="50" x2="131" y1="414" y2="414"/>
  <line fill="none" id="svg_17" stroke="#595959" stroke-width="30" x1="276.99999" x2="423.00005" y1="414" y2="414"/>
  <line fill="none" id="svg_18" stroke="#595959" stroke-width="30" x1="558" x2="672.00001" y1="415" y2="415"/>
  <line fill="none" id="svg_20" stroke="#595959" stroke-width="30" x1="50" x2="215" y1="374" y2="374"/>
  <line fill="none" id="svg_21" stroke="#595959" stroke-width="30" x1="277" x2="368.00005" y1="374" y2="374"/>
  <line fill="none" id="svg_22" stroke="#595959" stroke-width="30" x1="558" x2="653.00001" y1="375" y2="375"/>
  <line fill="none" id="svg_24" stroke="#595959" stroke-width="30" x1="50" x2="227" y1="334" y2="334"/>
  <line fill="none" id="svg_25" stroke="#595959" stroke-width="30" x1="276.99999" x2="501.00004" y1="334" y2="334"/>
  <line fill="none" id="svg_26" stroke="#595959" stroke-width="30" x1="558" x2="751.00001" y1="335" y2="335"/>
  <line fill="none" id="svg_28" stroke="#595959" stroke-width="30" x1="50" x2="154" y1="294" y2="294"/>
  <line fill="none" id="svg_29" stroke="#595959" stroke-width="30" x1="276.99999" x2="458.00005" y1="294" y2="294"/>
  <line fill="none" id="svg_30" stroke="#595959" stroke-width="30" x1="558" x2="652.00001" y1="295" y2="295"/>
  <line fill="none" id="svg_32" stroke="#595959" stroke-width="30" x1="50" x2="241" y1="254" y2="254"/>
  <line fill="none" id="svg_33" stroke="#595959" stroke-width="30" x1="276.99999" x2="434.00004" y1="254" y2="254"/>
  <line fill="none" id="svg_34" stroke="#595959" stroke-width="30" x1="558" x2="735.00002" y1="255" y2="255"/>
  <line fill="none" id="svg_36" stroke="#595959" stroke-width="30" x1="50" x2="223" y1="214" y2="214"/>
  <line fill="none" id="svg_37" stroke="#595959" stroke-width="30" x1="276.99999" x2="520.00003" y1="214" y2="214"/>
  <line fill="none" id="svg_38" stroke="#595959" stroke-width="30" x1="558" x2="685.00001" y1="215" y2="215"/>
  <line fill="none" id="svg_40" stroke="#595959" stroke-width="30" x1="50" x2="206" y1="174" y2="174"/>
  <line fill="none" id="svg_41" stroke="#595959" stroke-width="30" x1="277" x2="351.00005" y1="174" y2="174"/>
  <line fill="none" id="svg_42" stroke="#595959" stroke-width="30" x1="558" x2="731.00001" y1="174" y2="174"/>
  <line fill="none" id="svg_95" stroke="#b9b9b9" stroke-width="30" x1="50" x2="131" y1="694" y2="694"/>
  <line fill="none" id="svg_94" stroke="#b9b9b9" stroke-width="30" x1="276.99999" x2="423.00005" y1="694" y2="694"/>
  <line fill="none" id="svg_93" stroke="#b9b9b9" stroke-width="30" x1="558" x2="672.00001" y1="695" y2="695"/>
  <line fill="none" id="svg_92" stroke="#a9a9a9" stroke-width="30" transform="matrix(1 0 0 1 0 0)" x1="50" x2="215" y1="654" y2="654"/>
  <line fill="none" id="svg_91" stroke="#a9a9a9" stroke-width="30" transform="matrix(1 0 0 1 0 0)" x1="277" x2="368.00005" y1="654" y2="654"/>
  <line fill="none" id="svg_90" stroke="#a9a9a9" stroke-width="30" transform="matrix(1 0 0 1 0 0)" x1="558" x2="653.00001" y1="655" y2="655"/>
  <line fill="none" id="svg_89" stroke="#999999" stroke-width="30" transform="matrix(1 0 0 1 0 0)" x1="51" x2="217" y1="614" y2="614"/>
  <line fill="none" id="svg_88" stroke="#999999" stroke-width="30" transform="matrix(1 0 0 1 0 0)" x1="275.99999" x2="441.00004" y1="614" y2="614"/>
  <line fill="none" id="svg_87" stroke="#999999" stroke-width="30" transform="matrix(1 0 0 1 0 0)" x1="558" x2="686" y1="615" y2="615"/>
  <line fill="none" id="svg_86" stroke="#898989" stroke-width="30" transform="matrix(1 0 0 1 0 0)" x1="50" x2="154" y1="574" y2="574"/>
  <line fill="none" id="svg_85" stroke="#898989" stroke-width="30" transform="matrix(1 0 0 1 0 0)" x1="276.99999" x2="458.00005" y1="574" y2="574"/>
  <line fill="none" id="svg_84" stroke="#898989" stroke-width="30" transform="matrix(1 0 0 1 0 0)" x1="558" x2="729.00001" y1="575" y2="575"/>
  <line fill="none" id="svg_83" stroke="#797979" stroke-width="30" transform="matrix(1 0 0 1 0 0)" x1="50" x2="187" y1="534" y2="534"/>
  <line fill="none" id="svg_82" stroke="#797979" stroke-width="30" transform="matrix(1 0 0 1 0 0)" x1="276.99999" x2="434.00004" y1="534" y2="534"/>
  <line fill="none" id="svg_81" stroke="#797979" stroke-width="30" transform="matrix(1 0 0 1 0 0)" x1="558" x2="668.00001" y1="535" y2="535"/>
  <line fill="none" id="svg_80" stroke="#696969" stroke-width="30" transform="matrix(1 0 0 1 0 0)" x1="50" x2="150" y1="494" y2="494"/>
  <line fill="none" id="svg_79" stroke="#696969" stroke-width="30" transform="matrix(1 0 0 1 0 0)" x1="276.99999" x2="466.00003" y1="494" y2="494"/>
  <line fill="none" id="svg_78" stroke="#696969" stroke-width="30" transform="matrix(1 0 0 1 0 0)" x1="558" x2="739.00002" y1="495" y2="495"/>
  <line fill="none" id="svg_77" stroke="#595959" stroke-width="30" x1="50" x2="206" y1="454" y2="454"/>
  <line fill="none" id="svg_76" stroke="#595959" stroke-width="30" transform="matrix(1 0 0 1 0 0)" x1="277" x2="463.00004" y1="454" y2="454"/>
  <line fill="none" id="svg_75" stroke="#595959" stroke-width="30" x1="558" x2="731.00001" y1="454" y2="454"/>
 </g>
</svg>
