<?xml version="1.0" encoding="utf-8" standalone="no"?>
<svg id="Layer_1" data-name="Layer 1"
xmlns="http://www.w3.org/2000/svg" viewBox="0 0 128 128">
  <defs>
    <style>.cls-1{fill:#2e79bd;}.cls-2{fill:#2d3e50;}</style>
  </defs>
  <title>x</title>
  <path class="cls-1"
  d="M65.76936,84.91726A14.569,14.569,0,0,0,81.8329,91.57069a14.3916,14.3916,0,0,0,3.87116-1.60659,14.58906,14.58906,0,0,0,5.04923-5.04937A14.38535,14.38535,0,0,0,92.36,81.04356a14.54749,14.54749,0,0,0-6.6559-16.06347A14.38933,14.38933,0,0,0,81.8329,63.3735,14.54085,14.54085,0,0,0,65.76936,84.91726Z" />
  <path class="cls-2"
  d="M119.57964,70.98182H116.723a38.78508,38.78508,0,0,0-6.67352-16.11549l2.02186-2.022A6.4929,6.4929,0,0,0,102.889,43.662l-2.02186,2.022a38.72209,38.72209,0,0,0-16.11077-6.6688V36.15382a6.493,6.493,0,0,0-11.32969-4.33148A9.56557,9.56557,0,0,1,74.651,36.52948a9.706,9.706,0,0,1-7.63335,9.46982,32.63808,32.63808,0,0,1-2.46258,5.95,9.72313,9.72313,0,0,1,1.07586,2.291,26.22305,26.22305,0,0,1,6.14017-2.40689,26.6729,26.6729,0,0,1,12.98527,0A26.16727,26.16727,0,0,1,91.796,54.755,26.49008,26.49008,0,0,1,103.90014,83.967a26.167,26.167,0,0,1-2.92177,7.0398,26.53283,26.53283,0,0,1-9.18235,9.18242,26.16728,26.16728,0,0,1-7.03966,2.92163A26.44855,26.44855,0,0,1,54.14374,66.61791a9.61961,9.61961,0,0,1-2.98662-1.2707,33.26185,33.26185,0,0,1-5.94533,2.46251A9.70663,9.70663,0,0,1,35.742,75.43856a9.60507,9.60507,0,0,1-4.48459-1.10377A6.49649,6.49649,0,0,0,36.943,83.967h2.86143a38.667,38.667,0,0,0,6.67338,16.11091l-2.022,2.02194a6.49133,6.49133,0,1,0,9.17784,9.18242l2.022-2.022a38.78244,38.78244,0,0,0,16.11542,6.67345v2.85671a6.49264,6.49264,0,0,0,12.98527,0V115.929a38.72209,38.72209,0,0,0,16.11077-6.6688l2.02186,2.022a6.49293,6.49293,0,0,0,9.18235-9.18242l-2.02186-2.02194A38.721,38.721,0,0,0,116.71821,83.967h2.86143a6.49257,6.49257,0,1,0,0-12.98513Z" />
  <path class="cls-1"
  d="M31.14826,65.74592a4.59131,4.59131,0,0,0,9.18263,0V63.72251a27.38307,27.38307,0,0,0,11.393-4.71595l1.42987,1.42987A4.59156,4.59156,0,0,0,59.64723,53.943l-1.43-1.42987a27.3823,27.3823,0,0,0,4.71595-11.393h2.02356a4.59135,4.59135,0,0,0,0-9.1827H62.93641a27.42543,27.42543,0,0,0-4.71919-11.39623l1.43-1.42987a4.59156,4.59156,0,0,0-6.49348-6.49341l-1.42987,1.42987a27.38214,27.38214,0,0,0-11.393-4.71595V7.30838a4.59131,4.59131,0,1,0-9.18263,0V9.32855a27.42612,27.42612,0,0,0-11.39637,4.71926L18.322,12.61794a4.59036,4.59036,0,1,0-6.4901,6.49341l1.42987,1.42987A27.38583,27.38583,0,0,0,8.53935,31.93746H6.519a4.59135,4.59135,0,0,0,0,9.1827H8.54246a27.34486,27.34486,0,0,0,4.71933,11.393L11.83192,53.943a4.59037,4.59037,0,1,0,6.4901,6.49341l1.42987-1.42987a27.426,27.426,0,0,0,11.39637,4.71919ZM28.13358,49.29037A14.86079,14.86079,0,0,1,39.38685,22.12244,14.70056,14.70056,0,0,1,43.342,23.76393a14.88285,14.88285,0,0,1,6.80055,16.41227,14.69874,14.69874,0,0,1-1.64149,3.95526A14.90572,14.90572,0,0,1,43.342,49.29037a14.696,14.696,0,0,1-3.95519,1.64149,14.84261,14.84261,0,0,1-11.25327-1.64149Z" />
</svg>
