<svg width="800" height="800" xmlns="http://www.w3.org/2000/svg" xmlns:svg="http://www.w3.org/2000/svg" enable-background="new 0 0 48 48" version="1">
 <!-- Created with SVG-edit - https://github.com/SVG-Edit/svgedit-->
 <g class="layer">
  <title>Layer 1</title>
  <path d="m636.27749,415.8705l81.48879,-43.09275c-1.60164,-15.9731 -4.6967,-31.47004 -8.57093,-46.68561l-90.51425,-12.53174c-7.83504,-18.87337 -18.18077,-36.38318 -30.34457,-52.44285l34.50017,-84.86522c-11.34134,-11.05997 -23.59171,-21.14596 -36.4914,-30.43114l-76.85703,48.24396c-18.02926,-9.47997 -37.44372,-16.6657 -57.83215,-21.29747l-27.76896,-86.05563c-7.87833,-0.58438 -15.75666,-1.21205 -23.7865,-1.21205s-15.88653,0.60603 -23.7865,1.21205l-27.50923,85.2981c-20.92953,4.48026 -40.77686,11.75257 -59.26064,21.34076l-75.66662,-47.52972c-12.87804,9.28518 -25.12842,19.37117 -36.46975,30.43114l33.54784,82.50605c-13.07284,16.77392 -24.02458,35.2577 -32.24922,55.19161l-87.65727,12.12051c-3.85259,15.21557 -6.96929,30.69087 -8.54929,46.68561l78.6751,41.62097c0.88739,21.92514 4.52355,43.15768 10.95175,63.15652l-59.34722,65.62391c6.90436,14.30653 14.5879,28.20183 23.48349,41.23138l87.3759,-18.76515c14.32818,15.58351 30.64758,29.24073 48.65519,40.53878l-3.3115,89.41041c14.34982,6.47149 29.26238,11.88243 44.62945,16.21118l55.27819,-71.0565c9.80463,1.25534 19.73912,2.09945 29.8684,2.09945c10.97339,0 21.7087,-0.99561 32.27086,-2.44575l55.55956,71.44608c15.38872,-4.32875 30.27963,-9.7397 44.62945,-16.21118l-3.37643,-91.01205c17.16351,-11.10325 32.72538,-24.39253 46.44753,-39.4133l89.64849,19.24131c8.89559,-13.02955 16.57913,-26.90321 23.48349,-41.23138l-61.27351,-67.76664c5.88711,-18.9383 9.17696,-38.93714 10.12928,-59.56365l0.00004,0zm-135.42507,103.52215l-38.63413,25.15006l-23.76486,-36.51304c-12.35859,4.76163 -25.66951,7.64025 -39.69467,7.64025c-61.27351,0 -110.92432,-49.67245 -110.92432,-110.92432c0,-61.27351 49.65081,-110.92432 110.92432,-110.92432c61.25187,0 110.92432,49.65081 110.92432,110.92432c0,30.60429 -12.40188,58.28667 -32.44401,78.37209l23.61335,36.27496z" fill="#828282" id="svg_5" stroke="#000000" stroke-linejoin="round" stroke-width="19"/>
 </g>
</svg>
