<svg width="800" height="800" xmlns="http://www.w3.org/2000/svg" xmlns:svg="http://www.w3.org/2000/svg">
 <!-- Created with SVG-edit - https://github.com/SVG-Edit/svgedit-->
 <g class="layer">
  <title>Layer 1</title>
  <line fill="none" id="svg_12" stroke="#dddddd" stroke-width="29" x1="158.52574" x2="240.834" y1="378.42347" y2="659.02821"/>
  <line fill="none" id="svg_18" stroke="#dddddd" stroke-width="29" x1="236.94949" x2="545.57658" y1="666.31969" y2="606.78698"/>
  <line fill="none" id="svg_17" stroke="#dddddd" stroke-width="29" x1="665.56718" x2="544.79258" y1="392.65027" y2="607.31595"/>
  <line fill="none" id="svg_13" stroke="#dddddd" stroke-width="29" x1="607.85196" x2="663.14804" y1="127.19467" y2="407.80533"/>
  <line fill="none" id="svg_16" stroke="#dddddd" stroke-width="29" x1="144.99916" x2="660.00084" y1="394.24533" y2="395.75467"/>
  <line fill="none" id="svg_11" stroke="#dddddd" stroke-width="29" x1="617.07272" x2="242.68718" y1="134.44631" y2="659.57027"/>
  <line fill="none" id="svg_14" stroke="#000000" stroke-width="29" transform="matrix(1 0 0 1 0 0)" x1="312.53445" x2="170.6432" y1="170.14398" y2="391.79474"/>
  <line fill="none" id="svg_10" stroke="#000000" stroke-width="29" transform="matrix(1 0 0 1 0 0) rotate(83.5633 460.841 157.673)" x1="459.84108" x2="461.84108" y1="-4.35969" y2="319.70603"/>
  <line fill="none" id="svg_6" stroke="#000000" stroke-width="29" transform="matrix(1 0 0 1 0 0) rotate(-0.94435 277.5 415)" x1="313" x2="242" y1="180" y2="650"/>
  <line fill="none" id="svg_9" stroke="#000000" stroke-width="29" transform="matrix(1 0 0 1 0 0) rotate(-69.4151 483.327 285.256)" x1="518.82676" x2="447.82676" y1="76.1965" y2="494.31577"/>
  <line fill="none" id="svg_8" stroke="#000000" stroke-width="29" transform="matrix(1 0 0 1 0 0) rotate(-38.0507 421.5 386)" x1="457.00001" x2="386.00001" y1="151" y2="621"/>
  <circle cx="166.5" cy="394" fill="#573dff" id="svg_15" r="70" stroke="#000000" stroke-width="8"/>
  <circle cx="240.5" cy="662" fill="#573dff" id="svg_1" r="70" stroke="#000000" stroke-width="8" transform="matrix(1 0 0 1 0 0)"/>
  <circle cx="545.5" cy="605" fill="#573dff" id="svg_2" r="70" stroke="#000000" stroke-width="8" transform="matrix(1 0 0 1 0 0)"/>
  <circle cx="308.5" cy="181" fill="#573dff" id="svg_3" r="70" stroke="#000000" stroke-width="8" transform="matrix(1 0 0 1 0 0)"/>
  <circle cx="608.5" cy="143" fill="#573dff" id="svg_4" r="70" stroke="#000000" stroke-width="8" transform="matrix(1 0 0 1 0 0)"/>
  <circle cx="660.5" cy="394" fill="#573dff" id="svg_5" r="70" stroke="#000000" stroke-width="8" transform="matrix(1 0 0 1 0 0)"/>
 </g>
</svg>
