<svg width="24" height="24" viewBox="0 0 24 24" fill="none"
xmlns="http://www.w3.org/2000/svg">
  <path d="M13.26 3.4C13.26 3.67689 13.1779 3.94757 13.0241 4.1778C12.8702 4.40803 12.6516 4.58747 12.3958 4.69343C12.1399 4.79939 11.8584 4.82712 11.5869 4.7731C11.3153 4.71908 11.0658 4.58574 10.8701 4.38995C10.6743 4.19416 10.5409 3.9447 10.4869 3.67313C10.4329 3.40155 10.4606 3.12006 10.5666 2.86424C10.6725 2.60843 10.852 2.38978 11.0822 2.23594C11.3124 2.08211 11.5831 2 11.86 2C12.2313 2 12.5874 2.1475 12.8499 2.41005C13.1125 2.6726 13.26 3.0287 13.26 3.4"
  fill="#F7BF75" />
  <path d="M11.8 6.25C11.1038 6.26678 10.4397 6.54612 9.94077 7.03203C9.44188 7.51793 9.14512 8.17447 9.11 8.87C9.92464 9.41323 10.8809 9.70531 11.86 9.71C12.8426 9.70727 13.8025 9.4151 14.62 8.87C14.5817 8.16338 14.2744 7.49822 13.7611 7.01102C13.2479 6.52381 12.5677 6.25152 11.86 6.25H11.8Z"
  fill="#F7BF75" />
  <path d="M5.59 20.15C5.59 20.5183 5.48065 20.8783 5.27583 21.1844C5.071 21.4905 4.77992 21.7289 4.43947 21.8694C4.09901 22.0098 3.72452 22.0461 3.36344 21.9735C3.00237 21.9009 2.67097 21.7228 2.41124 21.4616C2.15152 21.2005 1.97517 20.8682 1.90453 20.5067C1.8339 20.1452 1.87216 19.7709 2.01447 19.4313C2.15679 19.0916 2.39674 18.8018 2.70393 18.5986C3.01112 18.3954 3.37171 18.288 3.74 18.29C3.98379 18.29 4.22518 18.3382 4.45029 18.4318C4.67539 18.5254 4.87978 18.6625 5.0517 18.8354C5.22362 19.0082 5.35968 19.2134 5.45206 19.439C5.54444 19.6646 5.59132 19.9062 5.59 20.15Z"
  fill="#96CCEE" />
  <path d="M21.84 14.71C21.84 15.0763 21.7312 15.4344 21.5275 15.7388C21.3238 16.0433 21.0343 16.2804 20.6956 16.4201C20.357 16.5598 19.9845 16.5959 19.6254 16.5237C19.2663 16.4515 18.9366 16.2743 18.6783 16.0146C18.42 15.7549 18.2446 15.4243 18.1743 15.0648C18.1041 14.7052 18.1422 14.333 18.2837 13.9951C18.4253 13.6572 18.6639 13.369 18.9695 13.1669C19.275 12.9648 19.6337 12.858 20 12.86C20.4898 12.8626 20.9589 13.0584 21.3052 13.4048C21.6516 13.7511 21.8474 14.2202 21.85 14.71"
  fill="#F94060" />
  <path d="M21.84 20.15C21.838 20.5159 21.7276 20.873 21.5227 21.1761C21.3177 21.4792 21.0275 21.7148 20.6887 21.853C20.3499 21.9912 19.9778 22.0258 19.6193 21.9525C19.2608 21.8791 18.9322 21.7012 18.6748 21.441C18.4175 21.1809 18.2431 20.8503 18.1737 20.4911C18.1042 20.1318 18.1429 19.7601 18.2847 19.4228C18.4265 19.0855 18.6652 18.7979 18.9705 18.5962C19.2759 18.3946 19.6341 18.288 20 18.29C20.2438 18.29 20.4852 18.3382 20.7103 18.4318C20.9354 18.5254 21.1398 18.6625 21.3117 18.8354C21.4836 19.0082 21.6197 19.2134 21.7121 19.439C21.8044 19.6646 21.8513 19.9062 21.85 20.15"
  fill="#96CCEE" />
  <path d="M13.72 20.15C13.72 20.5179 13.6109 20.8775 13.4065 21.1834C13.2022 21.4892 12.9117 21.7276 12.5718 21.8684C12.2319 22.0092 11.8579 22.046 11.4971 21.9743C11.1363 21.9025 10.8049 21.7253 10.5448 21.4652C10.2847 21.2051 10.1075 20.8737 10.0357 20.5129C9.96397 20.1521 10.0008 19.7781 10.1416 19.4382C10.2824 19.0983 10.5208 18.8078 10.8266 18.6035C11.1325 18.3991 11.4921 18.29 11.86 18.29C12.1046 18.2887 12.3471 18.3359 12.5734 18.4289C12.7996 18.5219 13.0052 18.6588 13.1782 18.8318C13.3512 19.0048 13.4881 19.2104 13.5811 19.4366C13.6741 19.6629 13.7213 19.9054 13.72 20.15"
  fill="#96CCEE" />
  <path d="M13.76 3.4C13.76 3.02422 13.6486 2.65687 13.4398 2.34442C13.231 2.03196 12.9343 1.78844 12.5871 1.64463C12.2399 1.50082 11.8579 1.4632 11.4893 1.53651C11.1208 1.60982 10.7822 1.79078 10.5165 2.0565C10.2508 2.32222 10.0698 2.66077 9.99651 3.02933C9.9232 3.39789 9.96082 3.77992 10.1046 4.1271C10.2484 4.47428 10.492 4.77102 10.8044 4.97979C11.1169 5.18857 11.4842 5.3 11.86 5.3C12.3639 5.3 12.8472 5.09982 13.2035 4.7435C13.5598 4.38718 13.76 3.90391 13.76 3.4ZM11 3.4C11 3.222 11.0528 3.04799 11.1517 2.89999C11.2506 2.75198 11.3911 2.63663 11.5556 2.56851C11.72 2.50039 11.901 2.48257 12.0756 2.51729C12.2502 2.55202 12.4105 2.63774 12.5364 2.7636C12.6623 2.88947 12.748 3.04984 12.7827 3.22442C12.8174 3.399 12.7996 3.57996 12.7315 3.74442C12.6634 3.90887 12.548 4.04943 12.4 4.14832C12.252 4.24722 12.078 4.3 11.9 4.3C11.6613 4.3 11.4324 4.20518 11.2636 4.0364C11.0948 3.86761 11 3.6387 11 3.4V3.4Z"
  fill="black" />
  <path d="M3.73 10.84C3.59819 10.8426 3.4725 10.8961 3.37928 10.9893C3.28606 11.0825 3.23256 11.2082 3.23 11.34V17.85C2.66084 17.9734 2.15741 18.3029 1.81652 18.7751C1.47564 19.2472 1.32139 19.8288 1.38343 20.4079C1.44548 20.9869 1.71944 21.5226 2.15263 21.9118C2.58581 22.3011 3.14762 22.5164 3.73 22.5164C4.31238 22.5164 4.87419 22.3011 5.30738 21.9118C5.74056 21.5226 6.01452 20.9869 6.07657 20.4079C6.13861 19.8288 5.98436 19.2472 5.64348 18.7751C5.30259 18.3029 4.79916 17.9734 4.23 17.85V11.85H19.49V12.42C19.0503 12.5188 18.6478 12.7405 18.3291 13.0591C18.0105 13.3778 17.7888 13.7803 17.69 14.22H11.86C11.7282 14.2226 11.6025 14.2761 11.5093 14.3693C11.4161 14.4625 11.3626 14.5882 11.36 14.72V17.86C10.7908 17.9834 10.2874 18.3129 9.94652 18.7851C9.60564 19.2572 9.45139 19.8388 9.51343 20.4179C9.57548 20.9969 9.84944 21.5326 10.2826 21.9218C10.7158 22.3111 11.2776 22.5264 11.86 22.5264C12.4424 22.5264 13.0042 22.3111 13.4374 21.9218C13.8706 21.5326 14.1445 20.9969 14.2066 20.4179C14.2686 19.8388 14.1144 19.2572 13.7735 18.7851C13.4326 18.3129 12.9292 17.9834 12.36 17.86V15.21H17.69C17.7877 15.6502 18.009 16.0533 18.3278 16.3722C18.6467 16.691 19.0498 16.9123 19.49 17.01V17.85C18.9236 17.9733 18.4227 18.3017 18.0837 18.772C17.7447 19.2423 17.5915 19.8212 17.6535 20.3976C17.7155 20.974 17.9884 21.5072 18.4197 21.8945C18.851 22.2819 19.4103 22.4962 19.99 22.4962C20.5697 22.4962 21.129 22.2819 21.5603 21.8945C21.9916 21.5072 22.2645 20.974 22.3265 20.3976C22.3885 19.8212 22.2353 19.2423 21.8963 18.772C21.5573 18.3017 21.0564 17.9733 20.49 17.85V17C21.018 16.8893 21.4919 16.6003 21.832 16.1815C22.1722 15.7626 22.3578 15.2395 22.3578 14.7C22.3578 14.1605 22.1722 13.6374 21.832 13.2186C21.4919 12.7997 21.018 12.5107 20.49 12.4V11.34C20.49 11.2074 20.4373 11.0802 20.3436 10.9864C20.2498 10.8927 20.1226 10.84 19.99 10.84H12.36V10.17C13.2679 10.0912 14.1414 9.78512 14.9 9.28C14.9695 9.22991 15.0258 9.16371 15.0641 9.08707C15.1025 9.01044 15.1216 8.92566 15.12 8.84C15.0764 8.0052 14.7138 7.21904 14.1071 6.64397C13.5004 6.0689 12.6959 5.74887 11.86 5.75H11.79C10.9694 5.77367 10.1875 6.10419 9.59879 6.67628C9.01004 7.24837 8.65721 8.02044 8.61 8.84C8.60357 8.92637 8.62062 9.01287 8.65935 9.09033C8.69808 9.16779 8.75705 9.23333 8.83 9.28C9.58488 9.7851 10.4552 10.0912 11.36 10.17V10.84H3.73ZM5.09 20.15C5.08999 20.4194 5.00997 20.6827 4.86009 20.9066C4.7102 21.1305 4.4972 21.3048 4.24811 21.4074C3.99902 21.51 3.72506 21.5364 3.46098 21.4831C3.19689 21.4298 2.95459 21.2993 2.76479 21.1081C2.575 20.9169 2.44627 20.6736 2.39492 20.4091C2.34358 20.1447 2.37195 19.8709 2.47642 19.6226C2.58089 19.3743 2.75676 19.1626 2.98172 19.0143C3.20668 18.8661 3.4706 18.788 3.74 18.79C4.09896 18.7926 4.44232 18.9371 4.69521 19.1919C4.9481 19.4466 5.09001 19.791 5.09 20.15V20.15ZM13.22 20.15C13.22 20.419 13.1402 20.6819 12.9908 20.9056C12.8414 21.1292 12.629 21.3035 12.3805 21.4065C12.1319 21.5094 11.8585 21.5363 11.5947 21.4839C11.3309 21.4314 11.0885 21.3019 10.8983 21.1117C10.7081 20.9215 10.5786 20.6791 10.5261 20.4153C10.4737 20.1515 10.5006 19.8781 10.6035 19.6296C10.7065 19.381 10.8808 19.1686 11.1044 19.0192C11.3281 18.8698 11.591 18.79 11.86 18.79C12.2207 18.79 12.5666 18.9333 12.8217 19.1883C13.0767 19.4434 13.22 19.7893 13.22 20.15ZM21.34 20.15C21.338 20.417 21.2569 20.6774 21.1069 20.8983C20.9569 21.1192 20.7448 21.2907 20.4974 21.391C20.25 21.4913 19.9783 21.5161 19.7169 21.462C19.4554 21.408 19.2158 21.2777 19.0284 21.0875C18.841 20.8973 18.7142 20.6558 18.6641 20.3935C18.6139 20.1313 18.6427 19.8601 18.7467 19.6141C18.8507 19.3682 19.0252 19.1587 19.2483 19.012C19.4714 18.8653 19.733 18.788 20 18.79C20.1773 18.7913 20.3526 18.8275 20.5159 18.8966C20.6792 18.9656 20.8272 19.0662 20.9517 19.1925C21.0761 19.3188 21.1744 19.4683 21.2411 19.6326C21.3077 19.7969 21.3413 19.9727 21.34 20.15V20.15ZM20 13.36C20.267 13.36 20.528 13.4392 20.75 13.5875C20.972 13.7359 21.1451 13.9467 21.2472 14.1934C21.3494 14.4401 21.3762 14.7115 21.3241 14.9734C21.272 15.2352 21.1434 15.4758 20.9546 15.6646C20.7658 15.8534 20.5252 15.982 20.2634 16.0341C20.0015 16.0862 19.7301 16.0594 19.4834 15.9572C19.2367 15.8551 19.0259 15.682 18.8775 15.46C18.7292 15.238 18.65 14.977 18.65 14.71C18.6487 14.5323 18.6827 14.3562 18.7501 14.1918C18.8174 14.0274 18.9168 13.8781 19.0424 13.7524C19.1681 13.6268 19.3174 13.5274 19.4818 13.4601C19.6462 13.3927 19.8223 13.3587 20 13.36ZM9.64 8.61C9.7355 8.09905 10.0027 7.63607 10.3974 7.29779C10.792 6.9595 11.2905 6.76623 11.81 6.75V6.25L11.87 6.75C12.3998 6.74905 12.9129 6.93508 13.3191 7.27533C13.7252 7.61558 13.9982 8.08822 14.09 8.61C13.4119 8.99574 12.6451 9.19856 11.865 9.19856C11.0849 9.19856 10.3181 8.99574 9.64 8.61Z"
  fill="black" />
</svg>
