<svg width="800" height="800" xmlns="http://www.w3.org/2000/svg" xmlns:svg="http://www.w3.org/2000/svg">
 <!-- Created with SVG-edit - https://github.com/SVG-Edit/svgedit-->
 <g class="layer">
  <title>Layer 1</title>
  <line fill="none" id="svg_40" stroke="#d3d3d3" stroke-width="25" transform="rotate(107.282 234.653 349.504)" x1="139.20248" x2="330.10434" y1="346.40253" y2="352.60567"/>
  <line fill="none" id="svg_39" points="null" stroke="#d3d3d3" stroke-width="25" transform="rotate(-21.0375 345.545 259.406)" x1="412.54527" x2="278.54381" y1="267.61586" y2="251.19601"/>
  <line fill="none" id="svg_35" points="null" stroke="#d3d3d3" stroke-width="25" transform="matrix(1 0 0 1 0 0) matrix(1 0 0 1 0 0) matrix(1 0 0 1 0 0) matrix(1 0 0 1 0 0) matrix(1 0 0 1 0 0) matrix(1 0 0 1 0 0) matrix(1 0 0 1 0 0) matrix(1 0 0 1 0 0) matrix(1 0 0 1 0 0)" x1="200.34734" x2="105.93036" y1="453.81954" y2="581.37833"/>
  <line fill="none" id="svg_16" stroke="#d3d3d3" stroke-width="25" transform="matrix(1 0 0 1 0 0) matrix(1 0 0 1 0 0) matrix(1 0 0 1 0 0) matrix(1 0 0 1 0 0) matrix(0.411377 0.911465 -0.911465 0.411377 523.586 -376.263)" x1="574.49843" x2="531.71991" y1="122.44537" y2="312.04956"/>
  <line fill="none" id="svg_21" stroke="#d3d3d3" stroke-width="25" transform="matrix(1 0 0 1 0 0) matrix(1 0 0 1 0 0) rotate(55.3292 518.081 397.788)" x1="560.64988" x2="475.51119" y1="323.90823" y2="471.66805"/>
  <line fill="none" id="svg_22" points="null" stroke="#d3d3d3" stroke-width="25" transform="matrix(1 0 0 1 0 0) matrix(0.969849 0.243707 -0.243707 0.969849 114.218 -59.0091)" x1="370.77406" x2="220.40546" y1="390.17682" y2="474.02084"/>
  <line fill="none" id="svg_23" points="null" stroke="#d3d3d3" stroke-width="25" x1="484.97895" x2="436.71012" y1="74.76816" y2="207.59463"/>
  <line fill="none" id="svg_24" stroke="#d3d3d3" stroke-width="25" transform="rotate(93.6678 417.99 329.451)" x1="322.53942" x2="513.44128" y1="326.34896" y2="332.5521"/>
  <line fill="none" id="svg_25" points="null" stroke="#d3d3d3" stroke-width="25" x1="424.59402" x2="235.38893" y1="422.51311" y2="251.1464"/>
  <line fill="none" id="svg_26" points="null" stroke="#d3d3d3" stroke-width="25" transform="rotate(90 226.874 189.443)" x1="283.91894" x2="169.83005" y1="165.88673" y2="212.99923"/>
  <line fill="none" id="svg_27" points="null" stroke="#d3d3d3" stroke-width="25" x1="238.98129" x2="104.97983" y1="265.7298" y2="249.30994"/>
  <line fill="none" id="svg_29" points="null" stroke="#d3d3d3" stroke-width="25" x1="325.26009" x2="210.58961" y1="684.34354" y2="451.00268"/>
  <g id="svg_41">
   <circle cx="670.41608" cy="198.16336" fill="#49abd8" id="svg_7" r="60" stroke="#6d6d6d" stroke-width="8" transform="matrix(6.12323e-17 1 -1 6.12323e-17 868.579 -472.253)"/>
   <circle cx="487.11411" cy="66.82673" fill="#49abd8" id="svg_1" r="60" stroke="#6d6d6d" stroke-width="8" transform="matrix(6.12323e-17 1 -1 6.12323e-17 553.941 -420.287)"/>
   <circle cx="420.08935" cy="239.30198" fill="#49abd8" id="svg_8" r="60" stroke="#6d6d6d" stroke-width="8" transform="matrix(6.12323e-17 1 -1 6.12323e-17 669.292 -178.807)"/>
   <circle cx="602.73292" cy="363.37129" fill="#49abd8" id="svg_11" r="60" stroke="#6d6d6d" stroke-width="8" transform="matrix(6.12323e-17 1 -1 6.12323e-17 999.768 -215.599)"/>
   <circle cx="195.98045" cy="107.4802" fill="#49abd8" id="svg_14" r="60" stroke="#6d6d6d" stroke-width="8" transform="rotate(90 195.98 107.48)"/>
   <circle cx="85.98041" cy="249.48017" fill="#49abd8" id="svg_2" r="60" stroke="#6d6d6d" stroke-width="8" transform="rotate(90 85.9804 249.48)"/>
   <circle cx="263.98044" cy="268.4802" fill="#49abd8" id="svg_13" r="60" stroke="#6d6d6d" stroke-width="8" transform="rotate(90 263.98 268.48)"/>
   <circle cx="299.18836" cy="667.90594" fill="#49abd8" id="svg_3" r="60" stroke="#6d6d6d" stroke-width="8" transform="matrix(6.12323e-17 1 -1 6.12323e-17 995.807 385.549)"/>
   <circle cx="222.35668" cy="458.74753" fill="#49abd8" id="svg_12" r="60" stroke="#6d6d6d" stroke-width="8" transform="matrix(6.12323e-17 1 -1 6.12323e-17 663.282 222.529)"/>
   <circle cx="401.02005" cy="404.5" fill="#49abd8" id="svg_15" r="60" stroke="#6d6d6d" stroke-width="8" transform="matrix(6.12323e-17 1 -1 6.12323e-17 805.52 3.47995)"/>
   <circle cx="90.95071" cy="608.07423" fill="#49abd8" id="svg_34" r="60" stroke="#6d6d6d" stroke-width="8" transform="matrix(6.12323e-17 1 -1 6.12323e-17 699.025 517.124)"/>
  </g>
 </g>
 <g class="layer">
  <title>Change</title>
  <path d="m489.03505,675.68504l0,0l0,0c0,0 0,0 0,0l0,0l0,0c0,0 0,0 0,0c0,0 0,0 0,0l0,0l0,0l0,0l0,0l0,0l0,0c0,0 0,0 0,0l0,0l0,0c0,0 0,0 0,0l0,0z" fill="#000000" id="svg_31" stroke="#ffffff" stroke-width="7"/>
  <path d="m605.99194,418.47852l9.56436,0.13043l0,0c86.74322,0 157.06251,70.31928 157.06251,157.06252l0,0l0,0c0,41.65556 -16.54761,81.60502 -46.00254,111.05999c-29.45493,29.45494 -69.40439,46.00252 -111.05996,46.00252l-22.4375,0l0,44.87497l-89.75004,-89.74995l89.75004,-89.75004l0,44.87501l22.4375,0c37.17566,0 67.31248,-30.13685 67.31248,-67.31248l0,0l0,0c0,-37.17568 -30.13682,-67.31251 -67.31248,-67.31251l-9.56436,-0.13043l-0.00001,-89.75003z" fill="#b78738" fill-opacity="0.8" id="svg_33" stroke="#000000" stroke-linejoin="round" stroke-width="20"/>
  <path d="m435.1818,373.90012l9.56436,0.13043l0,0c86.74322,0 157.06251,70.31928 157.06251,157.06252l0,0l0,0c0,41.65556 -16.54761,81.60502 -46.00254,111.05999c-29.45493,29.45494 -69.40439,46.00252 -111.05996,46.00252l-22.4375,0l0,44.87497l-89.75004,-89.74995l89.75004,-89.75004l0,44.87501l22.4375,0c37.17566,0 67.31248,-30.13685 67.31248,-67.31248l0,0l0,0c0,-37.17568 -30.13682,-67.31251 -67.31248,-67.31251l-9.56436,-0.13043l-0.00001,-89.75003z" fill="#b78738" fill-opacity="0.8" id="svg_20" stroke="#000000" stroke-linejoin="round" stroke-width="20" transform="matrix(1 0 0 1 0 0) rotate(180 467.184 553.465)"/>
 </g>
</svg>
